<svg width="3106" height="2280" viewBox="0 0 3106 2280" fill="none" xmlns="http://www.w3.org/2000/svg">
<path d="M1343.63 1469.79C1076.33 1216.46 1006.14 1526.13 1004.46 1712.63C953.62 2066.22 1477.62 1748.25 1648.49 1712.63C1787.34 1683.69 2181.08 1886.71 2090.66 1401.39C2073.58 583.478 1677.75 1786.46 1343.63 1469.79Z" stroke="#344E41"/>
<path d="M942.862 985.331C208.538 238.794 15.7176 1151.35 11.0979 1700.94C-128.56 2742.9 1553 2065.5 1768.08 2009.34C2183.5 1929.5 3316.31 2303.49 3067.92 873.339C3021.01 -1536.91 1860.77 1918.5 942.862 985.331Z" stroke="#9CA92E" stroke-width="4"/>
<path d="M972.407 1712.25C974.184 1514.03 1048.33 1184.91 1330.69 1454.16C1683.65 1790.71 2104.14 515.07 2122.18 1384.35C2217.69 1900.15 1800.11 1691.61 1652.34 1722.19C1480.04 1758.48 918.705 2088.04 972.407 1712.25Z" stroke="#375140" stroke-width="1.09677"/>
<path d="M940.359 1711.86C942.23 1501.93 1020.33 1153.37 1317.76 1438.52C1689.55 1794.96 2134.7 446.664 2153.7 1367.31C2254.31 1913.58 1812.89 1699.53 1656.19 1731.76C1482.47 1768.7 883.792 2109.86 940.359 1711.86Z" stroke="#3B5440" stroke-width="1.19355"/>
<path d="M908.311 1711.48C910.277 1489.84 992.333 1121.82 1304.83 1422.89C1695.45 1799.22 2165.26 378.258 2185.22 1350.27C2290.93 1927.02 1825.66 1707.45 1660.04 1741.32C1484.9 1778.93 848.879 2131.68 908.311 1711.48Z" stroke="#3E573F" stroke-width="1.29032"/>
<path d="M876.265 1711.1C878.325 1477.74 964.337 1090.28 1291.9 1407.25C1701.35 1803.47 2195.81 309.854 2216.74 1333.23C2327.54 1940.46 1838.44 1715.38 1663.9 1750.89C1487.33 1789.16 813.967 2153.5 876.265 1711.1Z" stroke="#415A3F" stroke-width="1.3871"/>
<path d="M844.218 1710.72C846.374 1465.65 936.342 1058.74 1278.97 1391.62C1707.25 1807.73 2226.37 241.45 2248.26 1316.19C2364.16 1953.9 1851.22 1723.3 1667.75 1760.46C1489.76 1799.39 779.055 2175.33 844.218 1710.72Z" stroke="#455D3E" stroke-width="1.48387"/>
<path d="M812.173 1710.34C814.423 1453.56 908.347 1027.2 1266.04 1375.99C1713.15 1811.98 2256.93 173.047 2279.78 1299.15C2400.78 1967.34 1863.99 1731.23 1671.61 1770.03C1492.19 1809.62 744.145 2197.15 812.173 1710.34Z" stroke="#48603D" stroke-width="1.58065"/>
<path d="M780.127 1709.96C782.472 1441.47 880.352 995.658 1253.11 1360.36C1719.06 1816.24 2287.49 104.645 2311.31 1282.12C2437.4 1980.79 1876.77 1739.16 1675.47 1779.59C1494.62 1819.85 709.234 2218.98 780.127 1709.96Z" stroke="#4B633D" stroke-width="1.67742"/>
<path d="M748.083 1709.58C750.523 1429.37 852.358 964.119 1240.18 1344.73C1724.96 1820.5 2318.06 36.244 2342.83 1265.08C2474.02 1994.23 1889.55 1747.08 1679.32 1789.16C1497.05 1830.09 674.324 2240.81 748.083 1709.58Z" stroke="#4F653C" stroke-width="1.77419"/>
<path d="M716.038 1709.2C718.573 1417.28 824.364 932.58 1227.25 1329.1C1730.86 1824.76 2348.62 -32.157 2374.35 1248.05C2510.64 2007.67 1902.33 1755.01 1683.18 1798.73C1499.48 1840.32 639.414 2262.63 716.038 1709.2Z" stroke="#52683B" stroke-width="1.87097"/>
<path d="M683.994 1708.82C686.623 1405.19 796.37 901.042 1214.32 1313.48C1736.77 1829.02 2379.18 -100.557 2405.88 1231.01C2547.26 2021.12 1915.11 1762.94 1687.04 1808.3C1501.91 1850.55 604.505 2284.46 683.994 1708.82Z" stroke="#566B3B" stroke-width="1.96774"/>
<path d="M651.95 1708.44C654.674 1393.1 768.377 869.504 1201.4 1297.85C1742.67 1833.28 2409.74 -168.958 2437.4 1213.98C2583.88 2034.56 1927.89 1770.87 1690.9 1817.87C1504.34 1860.79 569.596 2306.29 651.95 1708.44Z" stroke="#596E3A" stroke-width="2.06452"/>
<path d="M619.906 1708.07C622.725 1381.01 740.384 837.967 1188.47 1282.22C1748.57 1837.54 2440.3 -237.357 2468.93 1196.94C2620.5 2048.01 1940.67 1778.8 1694.75 1827.45C1506.77 1871.02 534.687 2328.12 619.906 1708.07Z" stroke="#5C713A" stroke-width="2.16129"/>
<path d="M587.863 1707.69C590.776 1368.92 712.391 806.429 1175.54 1266.59C1754.48 1841.79 2470.87 -305.757 2500.45 1179.91C2657.12 2061.45 1953.45 1786.73 1698.61 1837.02C1509.2 1881.25 499.778 2349.95 587.863 1707.69Z" stroke="#607439" stroke-width="2.25806"/>
<path d="M555.819 1707.31C558.828 1356.83 684.398 774.893 1162.61 1250.96C1760.38 1846.06 2501.43 -374.156 2531.98 1162.88C2693.74 2074.9 1966.23 1794.66 1702.47 1846.59C1511.64 1891.49 464.869 2371.77 555.819 1707.31Z" stroke="#637738" stroke-width="2.35484"/>
<path d="M523.776 1706.94C526.879 1344.75 656.406 743.356 1149.69 1235.34C1766.29 1850.32 2531.99 -442.554 2563.5 1145.84C2730.36 2088.34 1979.01 1802.59 1706.33 1856.16C1514.07 1901.72 429.961 2393.6 523.776 1706.94Z" stroke="#667A38" stroke-width="2.45161"/>
<path d="M491.733 1706.56C494.931 1332.66 628.413 711.82 1136.76 1219.71C1772.19 1854.58 2562.55 -510.953 2595.03 1128.81C2766.98 2101.79 1991.79 1810.52 1710.19 1865.73C1516.5 1911.96 395.053 2415.43 491.733 1706.56Z" stroke="#6A7D37" stroke-width="2.54839"/>
<path d="M459.69 1706.19C462.983 1320.57 600.421 680.284 1123.83 1204.08C1778.09 1858.84 2593.12 -579.351 2626.55 1111.78C2803.61 2115.23 2004.57 1818.45 1714.05 1875.31C1518.93 1922.19 360.145 2437.26 459.69 1706.19Z" stroke="#6D8037" stroke-width="2.64516"/>
<path d="M427.647 1705.81C431.035 1308.48 572.429 648.748 1110.9 1188.46C1784 1863.1 2623.68 -647.749 2658.08 1094.75C2840.23 2128.68 2017.35 1826.38 1717.9 1884.88C1521.37 1932.43 325.237 2459.09 427.647 1705.81Z" stroke="#708336" stroke-width="2.74194"/>
<path d="M395.604 1705.44C399.087 1296.39 544.437 617.212 1097.98 1172.83C1789.9 1867.36 2654.24 -716.147 2689.6 1077.71C2876.85 2142.13 2030.13 1834.31 1721.76 1894.45C1523.8 1942.66 290.329 2480.92 395.604 1705.44Z" stroke="#748635" stroke-width="2.83871"/>
<path d="M363.562 1705.06C367.139 1284.3 516.445 585.676 1085.05 1157.21C1795.81 1871.62 2684.81 -784.545 2721.13 1060.68C2913.47 2155.57 2042.91 1842.25 1725.62 1904.02C1526.23 1952.9 255.421 2502.75 363.562 1705.06Z" stroke="#778935" stroke-width="2.93548"/>
<path d="M331.519 1704.69C335.191 1272.22 488.453 554.141 1072.12 1141.58C1801.71 1875.88 2715.37 -852.943 2752.65 1043.65C2950.09 2169.02 2055.69 1850.18 1729.48 1913.6C1528.67 1963.13 220.513 2524.58 331.519 1704.69Z" stroke="#7A8C34" stroke-width="3.03226"/>
<path d="M299.477 1704.31C303.243 1260.13 460.461 522.606 1059.2 1125.96C1807.62 1880.14 2745.93 -921.34 2784.18 1026.62C2986.71 2182.47 2068.47 1858.11 1733.34 1923.17C1531.1 1973.37 185.606 2546.41 299.477 1704.31Z" stroke="#7E8F34" stroke-width="3.12903"/>
<path d="M267.434 1703.94C271.296 1248.04 432.469 491.071 1046.27 1110.33C1813.52 1884.41 2776.5 -989.737 2815.71 1009.59C3023.34 2195.91 2081.25 1866.04 1737.2 1932.74C1533.53 1983.61 150.698 2568.25 267.434 1703.94Z" stroke="#819233" stroke-width="3.22581"/>
<path d="M235.392 1703.56C239.349 1235.96 404.478 459.536 1033.34 1094.71C1819.43 1888.67 2807.06 -1058.13 2847.23 992.556C3059.96 2209.36 2094.03 1873.97 1741.06 1942.32C1535.97 1993.84 115.791 2590.08 235.392 1703.56Z" stroke="#859432" stroke-width="3.32258"/>
<path d="M203.35 1703.19C207.401 1223.87 376.486 428.001 1020.42 1079.08C1825.33 1892.93 2837.62 -1126.53 2878.76 975.525C3096.58 2222.81 2106.81 1881.91 1744.92 1951.89C1538.4 2004.08 80.8833 2611.91 203.35 1703.19Z" stroke="#889732" stroke-width="3.41935"/>
<path d="M171.308 1702.81C175.454 1211.78 348.495 396.466 1007.49 1063.46C1831.24 1897.19 2868.19 -1194.93 2910.28 958.494C3133.2 2236.25 2119.59 1889.84 1748.78 1961.46C1540.83 2014.32 45.9759 2633.74 171.308 1702.81Z" stroke="#8B9A31" stroke-width="3.51613"/>
<path d="M139.266 1702.44C143.506 1199.69 320.503 364.931 994.566 1047.83C1837.14 1901.45 2898.75 -1263.33 2941.81 941.463C3169.82 2249.7 2132.38 1897.77 1752.64 1971.04C1543.27 2024.55 11.0686 2655.57 139.266 1702.44Z" stroke="#8F9D30" stroke-width="3.6129"/>
<path d="M107.224 1702.06C111.559 1187.61 292.512 333.397 981.64 1032.21C1843.05 1905.72 2929.32 -1331.72 2973.34 924.432C3206.45 2263.15 2145.16 1905.7 1756.5 1980.61C1545.7 2034.79 -23.8386 2677.4 107.224 1702.06Z" stroke="#92A030" stroke-width="3.70968"/>
<path d="M75.1818 1701.69C79.612 1175.52 264.52 301.862 968.714 1016.58C1848.96 1909.98 2959.88 -1400.12 3004.86 907.401C3243.07 2276.6 2157.94 1913.63 1760.36 1990.19C1548.13 2045.03 -58.7458 2699.23 75.1818 1701.69Z" stroke="#95A32F" stroke-width="3.80645"/>
<path d="M43.1398 1701.32C47.6648 1163.43 236.529 270.328 955.788 1000.96C1854.86 1914.24 2990.44 -1468.52 3036.39 890.37C3279.69 2290.04 2170.72 1921.57 1764.22 1999.76C1550.57 2055.26 -93.653 2721.06 43.1398 1701.32Z" stroke="#99A62F" stroke-width="3.90323"/>
</svg>
